<?xml version="1.0"?>
<svg xmlns="http://www.w3.org/2000/svg" viewBox="0 0 24 24">
    <path d="M 8 2 C 6.656 2 5.03125 4.861 5.03125 6 C 5.03125 7.9881537 6.4561801 8.7263355 6.875 10.1875 C 6.3683989 10.555928 6 11.446988 6 12.5 C 6 12.672 6.01225 12.837 6.03125 13 C 6.10525 12.418 6.348 12 7 12 C 7.3711724 12 7.7640331 12.469821 8 13 C 7.8306137 12.893449 7.6530523 12.84375 7.4375 12.84375 C 6.8333005 12.84375 6.34375 13.308125 6.34375 13.90625 C 6.34375 14.354843 6.607347 14.741842 7 14.90625 C 7.0182613 14.918186 7.0434231 14.928885 7.0625 14.9375 C 7.0435 14.9615 7.015 14.975 7 15 C 6.573 15.712 6.07825 16.922 6.03125 18 C 5.94125 20.074 8.61725 20.911 9.03125 21 C 7.31225 16.937 9.0625 16 9.0625 16 C 8.4215 17.016 8.7025 18.0565 8.8125 18.5625 C 8.9295 19.1015 9.248 20.005 10.625 20 C 11.375 19.997 12 19.5695 12 18.8125 C 12 19.5695 12.624 19.998 13.375 20 C 14.752 20.004 15.0705 19.1015 15.1875 18.5625 C 15.2965 18.0575 15.5775 17.016 14.9375 16 C 14.9375 16 16.68775 16.938 14.96875 21 C 15.38175 20.911 18.05875 20.074 17.96875 18 C 17.92075 16.922 17.427 15.712 17 15 C 16.985 14.975 16.9565 14.9625 16.9375 14.9375 C 16.949423 14.9325 16.957248 14.91348 16.96875 14.90625 C 17.357814 14.748066 17.65625 14.400361 17.65625 13.96875 C 17.65625 13.393269 17.161177 12.90625 16.5625 12.90625 C 16.34592 12.90625 16.138049 12.988569 15.96875 13.09375 C 16.19972 12.528541 16.607414 12 17 12 C 17.652 12 17.89475 12.418 17.96875 13 C 17.98775 12.837 18 12.672 18 12.5 C 18 11.446988 17.631601 10.555928 17.125 10.1875 C 17.54805 8.7263355 19 7.9881537 19 6 C 19 4.861 17.344 2 16 2 C 15.163 2 15.04925 4.541 15.03125 6 C 15.02425 6.588 15 7 15 7 C 15 7.7231618 14.786525 8.1432645 14.5625 8.40625 C 13.975068 8.1608262 13.161648 8.0167527 12 8 C 10.838352 8.0171334 10.024932 8.1608045 9.4375 8.40625 C 9.213475 8.1433943 9 7.7231618 9 7 C 9 7 9.007 6.588 9 6 C 8.982 4.541 8.837 2 8 2 z M 10.375 16.40625 C 10.485 16.93125 11 16.992 12 17 C 13 16.992 13.515 16.93225 13.625 16.40625 C 13.716 16.56325 13.875 16.858 13.875 17 C 13.875 17.287 13.501 17.46875 13.25 17.46875 C 12.876 17.46875 13 17.33125 12 17.78125 C 11 17.33125 11.125 17.46875 10.75 17.46875 C 10.498 17.46875 10.125 17.286 10.125 17 C 10.125 16.858 10.284 16.56325 10.375 16.40625 z M 9 20 C 9.018 21.031 9.965 22 11 22 L 12 22 L 13 22 C 14.035 22 14.982 21.031 15 20 C 14.826 20.066 13.857 20.79025 12.5 20.78125 C 12.339 20.78025 11.661 20.78025 11.5 20.78125 C 10.143 20.79025 9.174 20.066 9 20 z"/>
</svg>
